<?xml version="1.0" encoding="UTF-8" standalone="no"?>
<!DOCTYPE svg PUBLIC "-//W3C//DTD SVG 1.1//EN"
 "http://www.w3.org/Graphics/SVG/1.1/DTD/svg11.dtd">
<!-- Generated by graphviz version 2.40.1 (20161225.0304)
 -->
<!-- Title: snakemake_dag Pages: 1 -->
<svg width="938pt" height="332pt"
 viewBox="0.00 0.00 938.00 332.00" xmlns="http://www.w3.org/2000/svg" xmlns:xlink="http://www.w3.org/1999/xlink">
<g id="graph0" class="graph" transform="scale(1 1) rotate(0) translate(4 328)">
<title>snakemake_dag</title>
<polygon fill="#ffffff" stroke="transparent" points="-4,4 -4,-328 934,-328 934,4 -4,4"/>
<!-- 0 -->
<g id="node1" class="node">
<title>0</title>
<path fill="none" stroke="#d85656" stroke-width="2" d="M499.5,-36C499.5,-36 442.5,-36 442.5,-36 436.5,-36 430.5,-30 430.5,-24 430.5,-24 430.5,-12 430.5,-12 430.5,-6 436.5,0 442.5,0 442.5,0 499.5,0 499.5,0 505.5,0 511.5,-6 511.5,-12 511.5,-12 511.5,-24 511.5,-24 511.5,-30 505.5,-36 499.5,-36"/>
<text text-anchor="middle" x="471" y="-15.5" font-family="sans" font-size="10.00" fill="#000000">all_download</text>
</g>
<!-- 1 -->
<g id="node2" class="node">
<title>1</title>
<path fill="none" stroke="#56d88a" stroke-width="2" stroke-dasharray="5,2" d="M210,-108C210,-108 12,-108 12,-108 6,-108 0,-102 0,-96 0,-96 0,-84 0,-84 0,-78 6,-72 12,-72 12,-72 210,-72 210,-72 216,-72 222,-78 222,-84 222,-84 222,-96 222,-96 222,-102 216,-108 210,-108"/>
<text text-anchor="middle" x="111" y="-93" font-family="sans" font-size="10.00" fill="#000000">dl_assemblies</text>
<text text-anchor="middle" x="111" y="-82" font-family="sans" font-size="10.00" fill="#000000">sample: GCA_001618865.1_ASM161886v1</text>
</g>
<!-- 1&#45;&gt;0 -->
<g id="edge1" class="edge">
<title>1&#45;&gt;0</title>
<path fill="none" stroke="#c0c0c0" stroke-width="2" d="M201.3785,-71.9243C270.5931,-58.0814 363.5437,-39.4913 420.2602,-28.148"/>
<polygon fill="#c0c0c0" stroke="#c0c0c0" stroke-width="2" points="421.2954,-31.5103 430.4148,-26.117 419.9226,-24.6462 421.2954,-31.5103"/>
</g>
<!-- 2 -->
<g id="node3" class="node">
<title>2</title>
<path fill="none" stroke="#56d88a" stroke-width="2" stroke-dasharray="5,2" d="M450,-108C450,-108 252,-108 252,-108 246,-108 240,-102 240,-96 240,-96 240,-84 240,-84 240,-78 246,-72 252,-72 252,-72 450,-72 450,-72 456,-72 462,-78 462,-84 462,-84 462,-96 462,-96 462,-102 456,-108 450,-108"/>
<text text-anchor="middle" x="351" y="-93" font-family="sans" font-size="10.00" fill="#000000">dl_assemblies</text>
<text text-anchor="middle" x="351" y="-82" font-family="sans" font-size="10.00" fill="#000000">sample: GCA_002009355.1_ASM200935v1</text>
</g>
<!-- 2&#45;&gt;0 -->
<g id="edge2" class="edge">
<title>2&#45;&gt;0</title>
<path fill="none" stroke="#c0c0c0" stroke-width="2" d="M381.2811,-71.8314C396.6298,-62.6221 415.4498,-51.3301 431.8823,-41.4706"/>
<polygon fill="#c0c0c0" stroke="#c0c0c0" stroke-width="2" points="433.9544,-44.3091 440.7286,-36.1628 430.3529,-38.3066 433.9544,-44.3091"/>
</g>
<!-- 3 -->
<g id="node4" class="node">
<title>3</title>
<path fill="none" stroke="#56d88a" stroke-width="2" stroke-dasharray="5,2" d="M690,-108C690,-108 492,-108 492,-108 486,-108 480,-102 480,-96 480,-96 480,-84 480,-84 480,-78 486,-72 492,-72 492,-72 690,-72 690,-72 696,-72 702,-78 702,-84 702,-84 702,-96 702,-96 702,-102 696,-108 690,-108"/>
<text text-anchor="middle" x="591" y="-93" font-family="sans" font-size="10.00" fill="#000000">dl_assemblies</text>
<text text-anchor="middle" x="591" y="-82" font-family="sans" font-size="10.00" fill="#000000">sample: GCA_003851365.1_ASM385136v1</text>
</g>
<!-- 3&#45;&gt;0 -->
<g id="edge3" class="edge">
<title>3&#45;&gt;0</title>
<path fill="none" stroke="#c0c0c0" stroke-width="2" d="M560.7189,-71.8314C545.3702,-62.6221 526.5502,-51.3301 510.1177,-41.4706"/>
<polygon fill="#c0c0c0" stroke="#c0c0c0" stroke-width="2" points="511.6471,-38.3066 501.2714,-36.1628 508.0456,-44.3091 511.6471,-38.3066"/>
</g>
<!-- 4 -->
<g id="node5" class="node">
<title>4</title>
<path fill="none" stroke="#56d88a" stroke-width="2" stroke-dasharray="5,2" d="M918,-108C918,-108 732,-108 732,-108 726,-108 720,-102 720,-96 720,-96 720,-84 720,-84 720,-78 726,-72 732,-72 732,-72 918,-72 918,-72 924,-72 930,-78 930,-84 930,-84 930,-96 930,-96 930,-102 924,-108 918,-108"/>
<text text-anchor="middle" x="825" y="-93" font-family="sans" font-size="10.00" fill="#000000">dl_assemblies</text>
<text text-anchor="middle" x="825" y="-82" font-family="sans" font-size="10.00" fill="#000000">sample: GCA_000013425.1_ASM1342v1</text>
</g>
<!-- 4&#45;&gt;0 -->
<g id="edge4" class="edge">
<title>4&#45;&gt;0</title>
<path fill="none" stroke="#c0c0c0" stroke-width="2" d="M736.1278,-71.9243C668.4524,-58.1598 577.7003,-39.7018 521.8456,-28.3415"/>
<polygon fill="#c0c0c0" stroke="#c0c0c0" stroke-width="2" points="522.3328,-24.869 511.8358,-26.3056 520.9376,-31.7285 522.3328,-24.869"/>
</g>
<!-- 5 -->
<g id="node6" class="node">
<title>5</title>
<path fill="none" stroke="#d8bc56" stroke-width="2" stroke-dasharray="5,2" d="M532,-180C532,-180 410,-180 410,-180 404,-180 398,-174 398,-168 398,-168 398,-156 398,-156 398,-150 404,-144 410,-144 410,-144 532,-144 532,-144 538,-144 544,-150 544,-156 544,-156 544,-168 544,-168 544,-174 538,-180 532,-180"/>
<text text-anchor="middle" x="471" y="-159.5" font-family="sans" font-size="10.00" fill="#000000">combine_assembly_tables</text>
</g>
<!-- 5&#45;&gt;1 -->
<g id="edge5" class="edge">
<title>5&#45;&gt;1</title>
<path fill="none" stroke="#c0c0c0" stroke-width="2" d="M397.7147,-147.3429C343.9796,-136.5959 270.3862,-121.8772 211.2142,-110.0428"/>
<polygon fill="#c0c0c0" stroke="#c0c0c0" stroke-width="2" points="211.5884,-106.5484 201.0962,-108.0192 210.2155,-113.4125 211.5884,-106.5484"/>
</g>
<!-- 5&#45;&gt;2 -->
<g id="edge6" class="edge">
<title>5&#45;&gt;2</title>
<path fill="none" stroke="#c0c0c0" stroke-width="2" d="M440.7189,-143.8314C425.3702,-134.6221 406.5502,-123.3301 390.1177,-113.4706"/>
<polygon fill="#c0c0c0" stroke="#c0c0c0" stroke-width="2" points="391.6471,-110.3066 381.2714,-108.1628 388.0456,-116.3091 391.6471,-110.3066"/>
</g>
<!-- 5&#45;&gt;3 -->
<g id="edge7" class="edge">
<title>5&#45;&gt;3</title>
<path fill="none" stroke="#c0c0c0" stroke-width="2" d="M501.2811,-143.8314C516.6298,-134.6221 535.4498,-123.3301 551.8823,-113.4706"/>
<polygon fill="#c0c0c0" stroke="#c0c0c0" stroke-width="2" points="553.9544,-116.3091 560.7286,-108.1628 550.3529,-110.3066 553.9544,-116.3091"/>
</g>
<!-- 5&#45;&gt;4 -->
<g id="edge8" class="edge">
<title>5&#45;&gt;4</title>
<path fill="none" stroke="#c0c0c0" stroke-width="2" d="M544.349,-147.0816C597.0913,-136.3543 668.7919,-121.7711 726.518,-110.0302"/>
<polygon fill="#c0c0c0" stroke="#c0c0c0" stroke-width="2" points="727.2881,-113.4454 736.3898,-108.0224 725.8929,-106.5858 727.2881,-113.4454"/>
</g>
<!-- 6 -->
<g id="node7" class="node">
<title>6</title>
<path fill="none" stroke="#88d856" stroke-width="2" stroke-dasharray="5,2" d="M290.5,-252C290.5,-252 187.5,-252 187.5,-252 181.5,-252 175.5,-246 175.5,-240 175.5,-240 175.5,-228 175.5,-228 175.5,-222 181.5,-216 187.5,-216 187.5,-216 290.5,-216 290.5,-216 296.5,-216 302.5,-222 302.5,-228 302.5,-228 302.5,-240 302.5,-240 302.5,-246 296.5,-252 290.5,-252"/>
<text text-anchor="middle" x="239" y="-231.5" font-family="sans" font-size="10.00" fill="#000000">filter_assembly_tables</text>
</g>
<!-- 6&#45;&gt;5 -->
<g id="edge9" class="edge">
<title>6&#45;&gt;5</title>
<path fill="none" stroke="#c0c0c0" stroke-width="2" d="M297.2439,-215.9243C329.3734,-205.9531 369.4394,-193.5188 402.9982,-183.104"/>
<polygon fill="#c0c0c0" stroke="#c0c0c0" stroke-width="2" points="404.2189,-186.3899 412.7321,-180.0831 402.144,-179.7045 404.2189,-186.3899"/>
</g>
<!-- 7 -->
<g id="node8" class="node">
<title>7</title>
<path fill="none" stroke="#88d856" stroke-width="2" stroke-dasharray="5,2" d="M445.5,-252C445.5,-252 342.5,-252 342.5,-252 336.5,-252 330.5,-246 330.5,-240 330.5,-240 330.5,-228 330.5,-228 330.5,-222 336.5,-216 342.5,-216 342.5,-216 445.5,-216 445.5,-216 451.5,-216 457.5,-222 457.5,-228 457.5,-228 457.5,-240 457.5,-240 457.5,-246 451.5,-252 445.5,-252"/>
<text text-anchor="middle" x="394" y="-231.5" font-family="sans" font-size="10.00" fill="#000000">filter_assembly_tables</text>
</g>
<!-- 7&#45;&gt;5 -->
<g id="edge10" class="edge">
<title>7&#45;&gt;5</title>
<path fill="none" stroke="#c0c0c0" stroke-width="2" d="M413.4304,-215.8314C422.732,-207.1337 434.0204,-196.5783 444.1286,-187.1265"/>
<polygon fill="#c0c0c0" stroke="#c0c0c0" stroke-width="2" points="446.6621,-189.5493 451.5759,-180.1628 441.8811,-184.4363 446.6621,-189.5493"/>
</g>
<!-- 8 -->
<g id="node9" class="node">
<title>8</title>
<path fill="none" stroke="#88d856" stroke-width="2" stroke-dasharray="5,2" d="M600.5,-252C600.5,-252 497.5,-252 497.5,-252 491.5,-252 485.5,-246 485.5,-240 485.5,-240 485.5,-228 485.5,-228 485.5,-222 491.5,-216 497.5,-216 497.5,-216 600.5,-216 600.5,-216 606.5,-216 612.5,-222 612.5,-228 612.5,-228 612.5,-240 612.5,-240 612.5,-246 606.5,-252 600.5,-252"/>
<text text-anchor="middle" x="549" y="-231.5" font-family="sans" font-size="10.00" fill="#000000">filter_assembly_tables</text>
</g>
<!-- 8&#45;&gt;5 -->
<g id="edge11" class="edge">
<title>8&#45;&gt;5</title>
<path fill="none" stroke="#c0c0c0" stroke-width="2" d="M529.3173,-215.8314C519.8949,-207.1337 508.4599,-196.5783 498.2204,-187.1265"/>
<polygon fill="#c0c0c0" stroke="#c0c0c0" stroke-width="2" points="500.3984,-184.3738 490.6764,-180.1628 495.6505,-189.5175 500.3984,-184.3738"/>
</g>
<!-- 9 -->
<g id="node10" class="node">
<title>9</title>
<path fill="none" stroke="#88d856" stroke-width="2" stroke-dasharray="5,2" d="M764.5,-252C764.5,-252 661.5,-252 661.5,-252 655.5,-252 649.5,-246 649.5,-240 649.5,-240 649.5,-228 649.5,-228 649.5,-222 655.5,-216 661.5,-216 661.5,-216 764.5,-216 764.5,-216 770.5,-216 776.5,-222 776.5,-228 776.5,-228 776.5,-240 776.5,-240 776.5,-246 770.5,-252 764.5,-252"/>
<text text-anchor="middle" x="713" y="-231.5" font-family="sans" font-size="10.00" fill="#000000">filter_assembly_tables</text>
</g>
<!-- 9&#45;&gt;5 -->
<g id="edge12" class="edge">
<title>9&#45;&gt;5</title>
<path fill="none" stroke="#c0c0c0" stroke-width="2" d="M652.2455,-215.9243C618.5874,-205.9103 576.5793,-193.412 541.4826,-182.97"/>
<polygon fill="#c0c0c0" stroke="#c0c0c0" stroke-width="2" points="542.3623,-179.5802 531.7794,-180.0831 540.3661,-186.2896 542.3623,-179.5802"/>
</g>
<!-- 10 -->
<g id="node11" class="node">
<title>10</title>
<path fill="none" stroke="#56c1d8" stroke-width="2" stroke-dasharray="5,2" d="M285,-324C285,-324 161,-324 161,-324 155,-324 149,-318 149,-312 149,-312 149,-300 149,-300 149,-294 155,-288 161,-288 161,-288 285,-288 285,-288 291,-288 297,-294 297,-300 297,-300 297,-312 297,-312 297,-318 291,-324 285,-324"/>
<text text-anchor="middle" x="223" y="-309" font-family="sans" font-size="10.00" fill="#000000">generate_assembly_tables</text>
<text text-anchor="middle" x="223" y="-298" font-family="sans" font-size="10.00" fill="#000000">entry: 1813735</text>
</g>
<!-- 10&#45;&gt;6 -->
<g id="edge13" class="edge">
<title>10&#45;&gt;6</title>
<path fill="none" stroke="#c0c0c0" stroke-width="2" d="M227.0375,-287.8314C228.7487,-280.131 230.7835,-270.9743 232.6852,-262.4166"/>
<polygon fill="#c0c0c0" stroke="#c0c0c0" stroke-width="2" points="236.1554,-262.9344 234.9082,-252.4133 229.3221,-261.4159 236.1554,-262.9344"/>
</g>
<!-- 11 -->
<g id="node12" class="node">
<title>11</title>
<path fill="none" stroke="#56c1d8" stroke-width="2" stroke-dasharray="5,2" d="M451,-324C451,-324 327,-324 327,-324 321,-324 315,-318 315,-312 315,-312 315,-300 315,-300 315,-294 321,-288 327,-288 327,-288 451,-288 451,-288 457,-288 463,-294 463,-300 463,-300 463,-312 463,-312 463,-318 457,-324 451,-324"/>
<text text-anchor="middle" x="389" y="-309" font-family="sans" font-size="10.00" fill="#000000">generate_assembly_tables</text>
<text text-anchor="middle" x="389" y="-298" font-family="sans" font-size="10.00" fill="#000000">entry: 114185</text>
</g>
<!-- 11&#45;&gt;7 -->
<g id="edge14" class="edge">
<title>11&#45;&gt;7</title>
<path fill="none" stroke="#c0c0c0" stroke-width="2" d="M390.2617,-287.8314C390.7965,-280.131 391.4323,-270.9743 392.0266,-262.4166"/>
<polygon fill="#c0c0c0" stroke="#c0c0c0" stroke-width="2" points="395.52,-262.6317 392.7213,-252.4133 388.5368,-262.1467 395.52,-262.6317"/>
</g>
<!-- 12 -->
<g id="node13" class="node">
<title>12</title>
<path fill="none" stroke="#56c1d8" stroke-width="2" stroke-dasharray="5,2" d="M617,-324C617,-324 493,-324 493,-324 487,-324 481,-318 481,-312 481,-312 481,-300 481,-300 481,-294 487,-288 493,-288 493,-288 617,-288 617,-288 623,-288 629,-294 629,-300 629,-300 629,-312 629,-312 629,-318 623,-324 617,-324"/>
<text text-anchor="middle" x="555" y="-309" font-family="sans" font-size="10.00" fill="#000000">generate_assembly_tables</text>
<text text-anchor="middle" x="555" y="-298" font-family="sans" font-size="10.00" fill="#000000">entry: ATCC_13985</text>
</g>
<!-- 12&#45;&gt;8 -->
<g id="edge15" class="edge">
<title>12&#45;&gt;8</title>
<path fill="none" stroke="#c0c0c0" stroke-width="2" d="M553.4859,-287.8314C552.8442,-280.131 552.0812,-270.9743 551.3681,-262.4166"/>
<polygon fill="#c0c0c0" stroke="#c0c0c0" stroke-width="2" points="554.8529,-262.088 550.5344,-252.4133 547.8771,-262.6694 554.8529,-262.088"/>
</g>
<!-- 13 -->
<g id="node14" class="node">
<title>13</title>
<path fill="none" stroke="#56c1d8" stroke-width="2" stroke-dasharray="5,2" d="M796.5,-324C796.5,-324 659.5,-324 659.5,-324 653.5,-324 647.5,-318 647.5,-312 647.5,-312 647.5,-300 647.5,-300 647.5,-294 653.5,-288 659.5,-288 659.5,-288 796.5,-288 796.5,-288 802.5,-288 808.5,-294 808.5,-300 808.5,-300 808.5,-312 808.5,-312 808.5,-318 802.5,-324 796.5,-324"/>
<text text-anchor="middle" x="728" y="-309" font-family="sans" font-size="10.00" fill="#000000">generate_assembly_tables</text>
<text text-anchor="middle" x="728" y="-298" font-family="sans" font-size="10.00" fill="#000000">entry: staphylococcus_aureus</text>
</g>
<!-- 13&#45;&gt;9 -->
<g id="edge16" class="edge">
<title>13&#45;&gt;9</title>
<path fill="none" stroke="#c0c0c0" stroke-width="2" d="M724.2149,-287.8314C722.6106,-280.131 720.703,-270.9743 718.9201,-262.4166"/>
<polygon fill="#c0c0c0" stroke="#c0c0c0" stroke-width="2" points="722.3021,-261.4892 716.8361,-252.4133 715.4493,-262.9169 722.3021,-261.4892"/>
</g>
</g>
</svg>
